<?xml version="1.0" standalone="no"?>
<!DOCTYPE svg PUBLIC "-//W3C//DTD SVG 20010904//EN"
 "http://www.w3.org/TR/2001/REC-SVG-20010904/DTD/svg10.dtd">
<svg version="1.0" xmlns="http://www.w3.org/2000/svg"
 width="260.000000pt" height="260.000000pt" viewBox="0 0 260.000000 260.000000"
 preserveAspectRatio="xMidYMid meet">
<metadata>
Created by potrace 1.14, written by Peter Selinger 2001-2017
</metadata>
<g transform="translate(0.000000,260.000000) scale(0.100000,-0.100000)"
fill="#000000" stroke="none">
<path d="M1210 2424 c-14 -2 -59 -9 -100 -15 -217 -32 -436 -146 -605 -315
-375 -376 -433 -966 -138 -1413 159 -240 426 -426 698 -486 148 -33 400 -28
525 10 100 31 251 95 309 132 139 89 274 224 365 365 38 60 104 202 117 253 4
17 16 59 25 95 14 50 18 105 18 245 1 158 -2 191 -23 270 -53 201 -144 365
-284 511 -163 171 -373 287 -594 330 -76 14 -270 26 -313 18z m-188 -588 c115
-27 211 -106 260 -212 19 -40 23 -66 23 -149 0 -93 -2 -105 -33 -167 -48 -98
-136 -169 -247 -197 -22 -6 -115 -11 -207 -11 l-168 0 0 375 0 375 158 0 c96
0 179 -6 214 -14z m406 -153 c1 -97 6 -163 12 -163 100 -4 413 0 420 5 7 4 11
59 10 148 -1 78 -1 150 0 160 0 15 7 18 38 15 l37 -3 3 -373 2 -373 -41 3 -42
3 2 156 c2 125 -1 158 -12 167 -11 9 -72 12 -218 10 l-204 -3 -5 -165 -5 -165
-39 0 -38 0 0 360 c0 198 1 366 1 373 1 9 13 12 39 10 l37 -3 3 -162z m-677
-654 c22 -11 15 -34 -7 -25 -20 8 -44 -3 -44 -20 0 -7 13 -20 30 -29 28 -15
50 -42 50 -64 0 -20 -33 -41 -66 -41 -45 0 -47 27 -2 32 44 4 46 24 4 49 -47
27 -58 65 -26 91 26 21 34 22 61 7z m246 -6 c3 -7 -8 -13 -24 -15 -28 -3 -28
-4 -31 -80 -2 -43 -7 -78 -12 -78 -11 0 -11 1 -13 90 -2 63 -3 65 -29 68 -28
3 -35 12 -21 26 12 11 126 2 130 -11z m432 2 c82 -42 53 -175 -38 -175 -47 0
-51 8 -51 99 0 90 23 110 89 76z m430 -23 c19 -21 22 -33 18 -69 -6 -58 -30
-83 -79 -83 -33 0 -41 5 -58 33 -24 39 -25 68 -4 108 27 54 80 59 123 11z
m-729 -48 c5 -69 5 -69 35 -69 l30 0 3 73 c2 55 6 72 17 72 12 0 15 -16 15
-74 0 -86 -12 -106 -65 -106 -53 0 -65 20 -65 107 0 55 3 74 13 71 7 -3 14
-31 17 -74z m480 -15 c0 -68 -3 -90 -12 -87 -9 3 -14 33 -16 91 -2 73 0 87 13
87 12 0 15 -16 15 -91z"/>
<path d="M735 1759 c-3 -8 -4 -140 -3 -294 l3 -280 140 0 c138 0 141 0 195 31
61 34 121 105 139 164 30 101 0 228 -71 298 -70 70 -113 84 -265 90 -107 4
-134 2 -138 -9z"/>
<path d="M1377 1003 c-4 -3 -7 -33 -7 -65 0 -54 1 -58 24 -58 32 0 50 25 49
68 -1 45 -42 79 -66 55z"/>
<path d="M1766 988 c-31 -43 -10 -108 34 -108 47 0 67 73 30 110 -26 26 -45
25 -64 -2z"/>
</g>
</svg>
